#N canvas 148 731 368 261 10;
#N canvas 517 741 450 300 subGuy 1;
#X obj 52 51 osc~ 10;
#X floatatom 84 101 5 0 0 0 - - -;
#X msg 53 139 30;
#X obj 48 167 inlet;
#X obj 114 195 outlet;
#X obj 68 223 osc~ 50;
#X obj 170 169 inlet;
#X connect 0 0 5 0;
#X connect 1 0 0 0;
#X connect 1 0 4 0;
#X connect 1 0 5 1;
#X connect 2 0 0 0;
#X restore 197 153 pd subGuy;
#X floatatom 109 44 5 0 0 0 - - -;
#X floatatom 226 50 17 0 0 0 - - -;
#X connect 1 0 0 0;
#X connect 2 0 0 0;
